HIERARCHY
ROOT Hips
{
    OFFSET 0.000000 0.000000 0.000000
    CHANNELS 6 Xposition Yposition Zposition Zrotation Xrotation Yrotation
    JOINT Spine
    {
        OFFSET -0.000000 7.856138 0.000000
        CHANNELS 3 Zrotation Xrotation Yrotation
        JOINT Spine1
        {
            OFFSET -0.000000 20.830866 0.000000
            CHANNELS 3 Zrotation Xrotation Yrotation
            JOINT Neck
            {
                OFFSET -0.000000 20.745317 1.885938
                CHANNELS 3 Zrotation Xrotation Yrotation
                JOINT Head
                {
                    OFFSET -0.000000 13.412918 -1.916131
                    CHANNELS 3 Zrotation Xrotation Yrotation
                    End Site
                    {
                        OFFSET -0.000000 23.951641 0.000000
                    }
                }
            }
            JOINT LeftShoulder
            {
                OFFSET 3.826675 19.078362 -0.073511
                CHANNELS 3 Zrotation Xrotation Yrotation
                JOINT LeftArm
                {
                    OFFSET 10.442133 0.000000 0.000000
                    CHANNELS 3 Zrotation Xrotation Yrotation
                    JOINT LeftForeArm
                    {
                        OFFSET 37.051945 0.000000 0.000000
                        CHANNELS 3 Zrotation Xrotation Yrotation
                        JOINT LeftHand
                        {
                            OFFSET 24.394852 0.000000 0.000000
                            CHANNELS 3 Zrotation Xrotation Yrotation
                            End Site
                            {
                                OFFSET 14.370985 0.000000 0.000000
                            }
                        }
                    }
                }
            }
            JOINT RightShoulder
            {
                OFFSET -3.827599 19.078362 -0.073511
                CHANNELS 3 Zrotation Xrotation Yrotation
                JOINT RightArm
                {
                    OFFSET -10.442133 0.000000 0.000000
                    CHANNELS 3 Zrotation Xrotation Yrotation
                    JOINT RightForeArm
                    {
                        OFFSET -37.051945 0.000000 0.000000
                        CHANNELS 3 Zrotation Xrotation Yrotation
                        JOINT RightHand
                        {
                            OFFSET -24.394852 0.000000 0.000000
                            CHANNELS 3 Zrotation Xrotation Yrotation
                            End Site
                            {
                                OFFSET -14.370985 0.000000 0.000000
                            }
                        }
                    }
                }
            }
        }
    }
    JOINT LeftUpLeg
    {
        OFFSET 9.580656 0.000000 0.000000
        CHANNELS 3 Zrotation Xrotation Yrotation
        JOINT LeftLeg
        {
            OFFSET -0.000000 -43.769192 0.000000
            CHANNELS 3 Zrotation Xrotation Yrotation
            JOINT LeftFoot
            {
                OFFSET -0.000000 -42.531967 0.000000
                CHANNELS 3 Zrotation Xrotation Yrotation
                JOINT LeftToeBase
                {
                    OFFSET -0.000000 -6.227426 14.370985
                    CHANNELS 3 Zrotation Xrotation Yrotation
                    End Site
                    {
                        OFFSET -0.000000 0.000000 3.832262
                    }
                }
            }
        }
    }
    JOINT RightUpLeg
    {
        OFFSET -9.580656 0.000000 0.000000
        CHANNELS 3 Zrotation Xrotation Yrotation
        JOINT RightLeg
        {
            OFFSET -0.000000 -43.769192 0.000000
            CHANNELS 3 Zrotation Xrotation Yrotation
            JOINT RightFoot
            {
                OFFSET -0.000000 -42.531967 0.000000
                CHANNELS 3 Zrotation Xrotation Yrotation
                JOINT RightToeBase
                {
                    OFFSET -0.000000 -6.227426 14.370985
                    CHANNELS 3 Zrotation Xrotation Yrotation
                    End Site
                    {
                        OFFSET -0.000000 0.000000 3.832262
                    }
                }
            }
        }
    }
}
MOTION
Frames:    14
Frame Time:    0.008333
-11.691083    93.151459    26.944649    -0.605186    -0.427052    88.277596    -0.686974    -4.691434    -2.296050    -1.927497    6.763121    -2.153974    5.448519    8.217337    -7.769087    7.732679    -2.908434    -7.204474    10.285666    -2.248067    -3.101245    -11.623891    -3.065078    -47.972115    44.622814    -16.657547    -45.595535    55.609413    19.409185    30.731644    4.543101    15.749466    4.878379    37.240715    52.025150    28.302156    -6.928686    -13.875822    26.212528    -5.996464    -11.940700    -7.057878    4.222064    0.407985    1.096134    -3.511514    3.997850    0.968206    2.314922    -6.257607    22.881153    0.000000    0.000000    0.000000    -3.456397    -6.015678    1.011058    2.995057    12.233409    1.388051    -0.131901    -7.950866    -14.704765    0.000000    0.000000    0.000000    
-11.693432    93.153000    26.929623    -0.604765    -0.417114    88.299324    -0.635406    -4.666474    -2.339293    -2.020875    6.742407    -2.194325    5.500779    8.234092    -7.726146    7.749616    -2.990273    -7.154493    10.244257    -2.267065    -3.067295    -12.765116    -4.143649    -48.312222    41.949635    -18.935053    -46.668156    53.297157    18.394747    36.053005    4.605016    15.724439    4.918613    37.208199    51.933353    28.331352    -6.887867    -13.856453    26.136446    -6.239425    -11.912431    -7.209191    4.209415    0.401164    1.080268    -3.521181    4.004344    0.941637    2.321362    -6.250516    22.896214    0.000000    0.000000    0.000000    -3.478798    -6.014149    1.016762    3.004666    12.234784    1.390731    -0.123105    -7.962463    -14.741982    0.000000    0.000000    0.000000    
-11.696008    93.154991    26.910442    -0.608455    -0.398744    88.308640    -0.601666    -4.670843    -2.354562    -2.114621    6.771441    -2.204924    5.621278    8.208024    -7.707743    7.707593    -3.068470    -7.147549    10.232737    -2.431818    -3.102433    -13.765357    -4.850071    -48.557480    38.785229    -22.462286    -47.853497    51.516888    15.835088    41.270260    4.692494    15.704551    4.895756    37.103104    51.857861    28.419140    -6.855817    -13.982327    26.071476    -6.371306    -12.037676    -7.296545    4.180448    0.402996    1.070510    -3.521988    3.983424    0.927104    2.283899    -6.243869    22.905544    0.000000    0.000000    0.000000    -3.508259    -6.012240    1.027024    3.003316    12.217801    1.382806    -0.132334    -7.945884    -14.749539    0.000000    0.000000    0.000000    
-11.699143    93.156555    26.894470    -0.621747    -0.380454    88.311348    -0.605068    -4.676422    -2.349280    -2.160038    6.775328    -2.196699    5.777209    8.217641    -7.713994    7.629290    -3.170676    -7.171781    10.201611    -2.577385    -3.145226    -14.718602    -5.582075    -48.857796    35.168304    -26.038685    -49.115414    49.947945    12.262872    45.426456    4.764471    15.674980    4.835927    37.033211    51.785973    28.473043    -6.781288    -14.009559    26.013220    -6.469880    -12.081834    -7.253870    4.150526    0.403076    1.077690    -3.516259    3.950641    0.950401    2.303072    -6.210639    22.871006    0.000000    0.000000    0.000000    -3.535388    -6.023178    1.023593    3.005904    12.208880    1.396976    -0.140841    -7.945236    -14.767058    0.000000    0.000000    0.000000    
-11.701044    93.159088    26.881784    -0.638942    -0.372518    88.312874    -0.582828    -4.674499    -2.358222    -2.221892    6.728918    -2.203777    5.900246    8.274812    -7.705464    7.577832    -3.249000    -7.172653    10.181725    -2.678965    -3.175231    -15.498031    -6.010508    -49.080406    31.831676    -29.295900    -50.222637    49.526211    8.310927    47.516991    4.827599    15.633492    4.879611    37.145119    51.664951    28.347588    -6.750407    -14.019790    25.954250    -6.434560    -12.106517    -7.224624    4.134365    0.391383    1.083811    -3.514989    3.940636    0.938392    2.281113    -6.206183    22.884390    0.000000    0.000000    0.000000    -3.551804    -6.035936    1.053059    3.015034    12.201305    1.407092    -0.161034    -7.943775    -14.815931    0.000000    0.000000    0.000000    
-11.704944    93.159607    26.867506    -0.660168    -0.353126    88.304649    -0.585738    -4.703945    -2.344246    -2.260729    6.744633    -2.186957    6.004250    8.279263    -7.715872    7.548951    -3.293138    -7.193055    10.173813    -2.822839    -3.217846    -16.262342    -6.521329    -49.309429    28.450409    -32.327408    -51.381725    48.421379    2.255307    46.473347    4.850392    15.616287    4.836925    37.117001    51.598755    28.402153    -6.782063    -14.049243    25.958382    -6.399218    -12.126747    -7.301946    4.110991    0.382638    1.090800    -3.521966    3.912331    0.938996    2.268582    -6.185649    22.873316    0.000000    0.000000    0.000000    -3.579699    -6.050253    1.075665    3.017303    12.180709    1.415431    -0.129624    -7.953149    -14.835585    0.000000    0.000000    0.000000    
-11.705215    93.161583    26.857965    -0.673739    -0.343756    88.292999    -0.560631    -4.704597    -2.340958    -2.314665    6.699264    -2.182440    6.035042    8.346719    -7.730608    7.592549    -3.333044    -7.196984    10.150295    -2.915614    -3.250489    -16.906498    -6.982071    -49.510773    26.386091    -33.804462    -51.838501    47.174629    -3.323492    42.250614    4.860880    15.622254    4.857545    37.162354    51.509808    28.393932    -6.778394    -14.082366    25.930569    -6.348717    -12.170343    -7.219137    4.094968    0.382341    1.095427    -3.520796    3.893595    0.919289    2.269198    -6.182681    22.901085    0.000000    0.000000    0.000000    -3.592947    -6.057214    1.114831    3.019004    12.165490    1.393371    -0.128944    -7.948839    -14.831223    0.000000    0.000000    0.000000    
-11.705219    93.164467    26.847538    -0.697052    -0.334144    88.275673    -0.527963    -4.730671    -2.336904    -2.365572    6.680417    -2.177006    6.056096    8.381248    -7.738068    7.607448    -3.338871    -7.201486    10.163548    -2.991875    -3.249730    -17.278250    -7.274277    -49.685432    26.569696    -32.948109    -51.474133    47.764896    -5.427900    35.586056    4.837056    15.619961    4.871359    37.199089    51.427387    28.433310    -6.740472    -14.122725    25.929234    -6.702736    -12.195110    -7.265535    4.077988    0.377470    1.097256    -3.516645    3.862210    0.940219    2.248760    -6.163561    22.886311    0.000000    0.000000    0.000000    -3.606233    -6.074006    1.111465    3.013614    12.145827    1.410539    -0.132053    -7.938094    -14.824657    0.000000    0.000000    0.000000    
-11.705552    93.166443    26.839268    -0.715554    -0.324811    88.248848    -0.508588    -4.728247    -2.314863    -2.398364    6.620804    -2.155130    6.035074    8.424636    -7.767513    7.684263    -3.314478    -7.216753    10.225738    -3.050120    -3.273632    -17.366564    -7.390783    -49.825550    28.873352    -30.258003    -50.657116    50.694763    -2.572706    31.044998    4.814963    15.678652    4.833429    37.148914    51.356781    28.562500    -6.738458    -14.164063    25.947632    -6.850122    -12.220160    -7.380789    4.060983    0.375724    1.109285    -3.514061    3.834052    0.948256    2.235325    -6.153567    22.908825    0.000000    0.000000    0.000000    -3.621595    -6.083072    1.168876    3.029080    12.122747    1.416287    -0.124366    -7.936841    -14.877895    0.000000    0.000000    0.000000    
-11.705917    93.169563    26.831337    -0.739066    -0.314811    88.216209    -0.468524    -4.741858    -2.305758    -2.441317    6.582917    -2.145917    5.972372    8.440325    -7.772926    7.756962    -3.258439    -7.208304    10.289835    -3.102841    -3.247790    -17.067213    -7.316650    -49.942635    33.109528    -26.356651    -49.238514    52.645638    3.019859    28.833702    4.745797    15.653644    4.868886    37.244308    51.314316    28.562323    -6.755100    -14.169409    25.981470    -6.773250    -12.219609    -7.466573    4.042423    0.370707    1.110219    -3.510272    3.806586    0.970883    2.243380    -6.130075    22.915567    0.000000    0.000000    0.000000    -3.633809    -6.107281    1.171343    3.025612    12.113523    1.421007    -0.106418    -7.922526    -14.852892    0.000000    0.000000    0.000000    
-11.703796    93.174377    26.825422    -0.755843    -0.306114    88.184471    -0.418131    -4.768209    -2.297377    -2.496716    6.581507    -2.136395    5.904831    8.450455    -7.776616    7.812225    -3.226894    -7.199381    10.394157    -3.162944    -3.198676    -16.361361    -7.013472    -50.041744    38.258072    -21.997366    -47.494884    53.110775    8.349817    26.060488    4.685376    15.633404    4.906533    37.275013    51.322430    28.619007    -6.813228    -14.180068    26.048826    -6.835424    -12.204157    -7.550814    4.024448    0.367052    1.124239    -3.497211    3.796395    0.973098    2.192973    -6.128765    22.919397    0.000000    0.000000    0.000000    -3.640532    -6.113839    1.202313    3.020582    12.079332    1.361075    -0.117806    -7.893527    -14.792180    0.000000    0.000000    0.000000    
-11.705162    93.181374    26.826185    -0.759838    -0.292640    88.183578    -0.409135    -4.752060    -2.304430    -2.497575    6.535812    -2.144811    5.814452    8.487994    -7.766633    7.878673    -3.214562    -7.169934    10.494398    -3.152925    -3.174558    -15.314028    -6.398622    -50.108006    43.118862    -18.448099    -46.045460    52.598713    12.155483    23.072689    4.618171    15.638357    4.948362    37.290474    51.299744    28.669386    -6.785084    -14.210731    26.130974    -7.057620    -12.215807    -7.653833    4.011868    0.361027    1.098963    -3.501059    3.794728    1.025763    2.180015    -6.103391    22.894419    0.000000    0.000000    0.000000    -3.657135    -6.116226    1.187000    3.020303    12.074348    1.396838    -0.084393    -7.875152    -14.797456    0.000000    0.000000    0.000000    
-11.696272    93.179871    26.822449    -0.770380    -0.302531    88.119003    -0.348795    -4.771201    -2.270188    -2.535461    6.515599    -2.111311    5.791066    8.520224    -7.760335    7.855163    -3.195809    -7.165205    10.582498    -3.243656    -3.097576    -13.837109    -5.328747    -50.161518    47.427776    -15.563259    -44.720261    52.482815    14.685960    19.386316    4.585825    15.642269    4.983322    37.268757    51.325470    28.719028    -6.889785    -14.230042    26.184692    -6.827827    -12.229133    -7.552767    4.019535    0.380271    1.116799    -3.504497    3.768201    1.027073    2.201738    -6.105731    22.935722    0.000000    0.000000    0.000000    -3.646662    -6.129827    1.242616    3.031222    12.068710    1.387873    -0.074253    -7.872872    -14.796259    0.000000    0.000000    0.000000    
-11.692381    93.183113    26.825260    -0.768606    -0.307658    88.097664    -0.327558    -4.775167    -2.257624    -2.520707    6.511742    -2.100547    5.588343    8.558208    -7.768242    8.108469    -3.171805    -7.115612    10.685151    -3.315391    -3.067478    -12.314684    -4.179127    -50.276459    50.612373    -13.405067    -43.622612    52.726929    15.692071    14.970248    4.521407    15.637741    5.024806    37.241371    51.343498    28.780113    -6.954894    -14.234670    26.305698    -6.825226    -12.212215    -7.540977    4.025626    0.386488    1.094095    -3.506828    3.773537    1.022485    2.175675    -6.119335    22.984489    0.000000    0.000000    0.000000    -3.641482    -6.128778    1.214635    3.025385    12.071424    1.435656    -0.062439    -7.858587    -14.787677    0.000000    0.000000    0.000000    
